<svg xmlns="http://www.w3.org/2000/svg" width="382" height="35" viewBox="0 0 382 35">
    <g fill="none" fill-rule="evenodd">
        <path fill="#00274C" d="M58.313 35L58.688 35 58.688 0 58.313 0z"/>
        <path fill="#FFCB05" d="M24.505 28.893L14.466 15.196 14.466 25.159 18.455 25.159 18.455 35 0 35 0 25.159 3.739 25.159 3.739 9.837 0 9.837 0 0 14.499 0 24.505 13.797 34.507 0 49 0 49 9.837 45.26 9.837 45.26 25.159 49 25.159 49 35 30.545 35 30.545 25.159 34.532 25.159 34.532 15.196z"/>
        <path fill="#00274C" d="M205.339 34.797V34.4c.499-.037.884-.073.884-.488 0-.148-.047-.309-.09-.446l-.218-.76h-2.579l-.229.643c-.052.159-.093.308-.093.468 0 .53.551.563.993.583v.398h-3.017V34.4c.77-.037 1.02-.19 1.3-.976l1.982-5.551-.114-.187c.848-.281 1.087-.414 1.45-.685.146.505.167.574.328 1.104l1.624 5.085c.291.903.426 1.126 1.2 1.21v.398h-3.421zm-.66-6.002l-1.078 3.103h2.106l-1.029-3.103zm-25.513 4.346c-.323.536-1.103 1.859-3.126 1.859-2.205 0-3.636-1.658-3.636-3.846 0-2.024 1.213-4.015 3.683-4.015 1.306 0 1.997.557 2.423.897l.495-.462.042 2.268-.323.064c-.13-.437-.318-.786-.79-1.312-.23-.245-.77-.739-1.536-.739-1.326 0-2.366 1.105-2.366 3.05 0 1.64.859 3.187 2.549 3.187 1.285 0 1.768-.728 2.147-1.29l.438.34zm1.232 1.656V34.4c.832-.073.843-.254.843-.976.01-.267.01-.532.01-.797V29.49c0-.488 0-.977-.03-1.211-.043-.446-.25-.505-.818-.563v-.399h3.137v.399c-.613.064-.842.085-.916.5-.052.238-.057.791-.057 1.243v1.03c.63.037 1.072.052 1.686.052.619 0 1.113-.015 1.737-.053v-1.252c-.01-1.365-.02-1.424-1.02-1.52v-.399h3.179v.399c-.854.106-.854.117-.854 1.54v3.16c0 .293.011 1.24.047 1.462.047.393.27.467.807.52v.404h-3.178v-.404c.739-.084.936-.106.998-.622.021-.217.021-.499.021-1.04v-1.376c-.583-.016-1.066-.048-1.67-.048-.634 0-1.123.017-1.758.048v1.376c.01 1.556.032 1.556.978 1.662v.404h-3.142v-.006zm9.045 0V34.4c.718-.1.864-.18.875-.967v-3.988c-.01-1.552-.01-1.6-.875-1.727v-.399h3.048v.399c-.858.085-.858.127-.858 1.727v3.027c0 .26.011 1.1.026 1.323.052.457.26.563.832.605v.398h-3.048zm-20.877 0V34.4c.718-.1.863-.18.874-.967v-3.988c-.01-1.552-.01-1.6-.874-1.727v-.399h3.043v.399c-.864.085-.864.127-.864 1.727v3.027c0 .26.016 1.1.037 1.323.047.457.254.563.827.605v.398h-3.043zm-4.613 0V34.4c.92-.063.92-.106.93-1.492V29.14l-2.564 5.754h-.645l-2.351-5.827-.057 4.398c0 .733.084.871.864.934v.398h-2.543V34.4c.592-.037.821-.117.857-.622.021-.2.057-.833.063-1.248l.104-3.133c.01-.245.01-.606.01-.872 0-.743-.145-.796-.796-.807v-.399h2.305l2.283 5.679 2.512-5.679h2.231v.442c-.873.053-.884.148-.873 1.316v3.082c0 .515.01 1.148.041 1.53.041.552.25.652.832.71v.4h-3.203zm45.287 0V34.4c.603-.037.832-.042.915-.466.104-.5.136-4.94.145-5.716-.405-.383-.571-.457-1.06-.5v-.399h2.2c.613.894.748 1.09 1.83 2.455l2.044 2.586v-3.35c-.01-1.186-.041-1.249-1.206-1.292v-.399H217v.399c-.807.01-.875.18-.884 1.403l-.105 5.774h-.437l-.655-.835c-.328-.424-.666-.85-.993-1.263l-2.898-3.645v3.879c0 1.21.079 1.252 1.203 1.369v.398h-2.991zm-61.146-3.749c0 2.587-1.721 3.947-3.667 3.947-2.133 0-3.797-1.572-3.797-3.958 0-2.045 1.342-3.894 3.694-3.878 2.224.006 3.77 1.621 3.77 3.89zm-3.661 3.256c.415-.017 1.004-.223 1.455-.925.515-.812.625-1.561.594-2.533-.032-.962-.292-1.795-.832-2.38-.235-.26-.698-.638-1.312-.616-.614 0-1.065.393-1.294.653-.52.606-.755 1.445-.755 2.407 0 .977.125 1.721.666 2.513.474.689 1.06.88 1.478.88zm4.399.085v.408h3.039v-.408c-.76-.074-.854-.15-.88-.966l.01-2.137h.812c.816 0 1.253.08 1.3.92h.36v-2.47h-.36c-.036.802-.255.887-1.15.887h-.962v-2.598c.261-.032.406-.036.87-.036 1.435 0 1.892-.006 2.09 1.162h.363l-.12-1.833h-5.372v.399c.526.058.76.09.832.436.052.234.063 1.062.063 1.36v2.623c0 .208-.015 1.111-.026 1.287-.02.817-.109.892-.869.966zm-62.996.36v-.403c.717-.095.857-.18.868-.967v-3.983c-.01-1.562-.01-1.605-.868-1.727v-.404h3.042v.404c-.859.086-.859.122-.859 1.727v3.022c0 .26.006 1.105.032 1.323.047.457.255.563.827.605v.404h-3.042zm32.289 0v-.403c.712-.095.857-.18.868-.967v-3.983c-.01-1.562-.01-1.605-.868-1.727v-.404h3.037v.404c-.863.086-.863.122-.863 1.727v3.022c0 .26.01 1.105.03 1.323.053.457.26.563.833.605v.404h-3.037zm-41.215 0v-.403c.604-.031.827-.042.915-.467.104-.5.136-4.94.141-5.716-.4-.377-.567-.456-1.056-.494v-.404h2.2c.614.888.75 1.09 1.826 2.46l2.043 2.587V28.96c-.005-1.185-.035-1.253-1.2-1.291v-.404h2.88v.404c-.795.005-.867.18-.878 1.398l-.104 5.78h-.431l-.657-.841c-.333-.424-.665-.845-.998-1.258l-2.892-3.65v3.883c0 1.206.078 1.248 1.202 1.365v.404h-2.99zm35.155-2.331l.374-.043c.4 1.218 1.077 1.876 2.18 1.876.775 0 1.462-.34 1.462-1.148 0-.85-.796-1.184-1.15-1.333-.29-.117-.604-.212-.894-.329-.605-.223-1.732-.701-1.732-2.151 0-1.398 1.076-2.19 2.335-2.19.489 0 1.056.112 1.68.516l.447-.33.24 2.227-.364.073c-.125-.488-.219-.716-.51-1.11-.354-.467-.848-.685-1.43-.685-.78 0-1.239.383-1.239.978 0 .887.863 1.19 1.685 1.46.417.143.755.26 1.056.436.583.35 1.06 1.01 1.06 1.908 0 1.296-1.039 2.369-2.584 2.369-.993 0-1.612-.404-1.898-.596l-.609-.452-.109-1.476zm12.046 2.332v-.318c.677-.011.863-.266.863-.856v-5.52h-.91c-.832 0-1.378-.03-1.445 1.302h-.38l.063-2.093h6.657l.061 2.093h-.39c-.06-1.333-.608-1.301-1.435-1.301h-.915v5.52c0 .59.187.844.858.855v.318h-3.027zm-52.808-7.485v.404c-.978.07-.978.106-.988 1.694v1.759c0 .914.02 1.7.49 2.401.373.552 1.014.627 1.336.627 1.045 0 1.622-.557 1.877-1.44.203-.695.213-2.013.213-2.879 0-.276 0-1.168-.01-1.413-.041-.68-.385-.701-1.04-.749v-.404h2.793v.404c-.681-.016-.832.144-.87.888-.01.18-.092 2.257-.103 2.576-.021.568-.057 1.136-.177 1.678-.5 2.014-2.418 2.12-2.928 2.12-.406 0-1.238-.064-1.919-.532-1.093-.753-1.102-1.875-1.102-3.086V29.62c-.01-.808-.01-1.17-.032-1.36-.063-.468-.292-.557-.843-.59v-.404h3.303zm25.98 0v.404c-.702.106-.8.303-1.399 1.791l-2.236 5.434h-.396l-2.002-5.52c-.494-1.423-.562-1.593-1.295-1.705v-.404h3.474v.404c-.587.016-.972.038-.972.473 0 .212.052.393.25 1.02l1.273 3.81 1.493-3.943c.093-.26.218-.6.218-.792 0-.535-.515-.563-.977-.568v-.404h2.569zm34.744 7.485v-.404c.578-.064.796-.084.936-.234.172-.17.172-.36.177-1.174v-1.317l-1.945-3.08c-.53-.808-.54-.83-1.242-.872v-.413h3.812v.413c-.77.022-1.114.038-1.114.398 0 .203.136.436.323.755l1.124 1.875 1.034-1.864c.188-.373.292-.59.292-.766 0-.36-.303-.365-.811-.398v-.413h2.86v.413c-.74.022-.952.245-1.79 1.641l-1.143 1.95v1.562c0 1.354.01 1.46 1.097 1.518v.41h-3.61zm-28.461 0c0-.541.09-1.43.152-1.94h-.354c-.25 1.335-.983 1.27-2.044 1.27-.979 0-1.17-.264-1.17-.754v-2.093h.785c.904 0 1.165.08 1.165.92h.348v-2.47h-.348c-.073.664-.21.881-1.156.881h-.795V27.93h.9c1.248 0 1.69.095 1.862 1.11h.327l-.04-1.775h-5.223v.399c.53.053.759.085.832.44.052.229.057 1.053.057 1.35v2.635c0 .202-.005 1.1-.016 1.28-.02.818-.114.893-.873.967v.414h5.591zm97.06-3.256v.404c-.665.037-.665.233-.687 1.651v.563c-.567.362-1.383.883-2.818.883-2.524 0-3.73-1.956-3.73-3.915 0-2.397 1.587-3.958 3.58-3.958 1.252 0 1.975.478 2.568.85l.384-.446.058 2.342-.296.053c-.156-.44-.38-.956-.93-1.519-.246-.243-.709-.558-1.452-.558-1.274 0-2.34 1.1-2.34 3.257 0 1.72.831 3.192 2.256 3.192.816 0 1.233-.583 1.274-.627.13-.201.161-.382.152-.711-.037-.956-.162-.973-.973-1.057v-.404h2.954zm-93.658-.76c.197.042.478.075.687.075.832.005 1.46-.665 1.493-1.265.046-.866-.385-1.62-1.733-1.62-.187 0-.302.012-.447.043v2.767zm0 1.63c.01 1.717.01 1.95.895 1.972v.414h-3.064v-.414c.79-.064.873-.191.884-1 .01-.306.01-.657.01-.96v-2.71c0-.897-.01-1.216-.04-1.46-.052-.415-.25-.49-.854-.542v-.399l3.323.006c1.806 0 2.377.882 2.377 1.922 0 .724-.437 1.658-1.446 1.976l1.301 2.307c.467.88.718 1.083 1.31 1.168v.25c-.16.015-.317.02-.483.02-1.378 0-1.95-.482-2.533-1.747l-.4-.876c-.437-.946-.584-.888-1.275-.899v.973h-.005zM82 16.276c0 .886-.15 1.675-.445 2.36-.3.691-.745 1.29-1.346 1.798-.596.512-1.3.896-2.112 1.152-.818.255-1.735.394-2.744.414-2.072 0-3.641-.5-4.712-1.505-1.078-1.004-1.621-2.478-1.641-4.423v-.916h2.712v.593c0 1.22.327 2.17.985 2.858.657.69 1.557 1.043 2.713 1.064 1.133 0 2.049-.307 2.744-.916.693-.61 1.045-1.434 1.045-2.479 0-.747-.233-1.392-.689-1.945-.455-.548-1.014-.993-1.666-1.326l-3.045-1.593c-1.512-.788-2.604-1.633-3.283-2.533-.673-.907-1.01-1.977-1.01-3.215 0-1.773.576-3.16 1.73-4.158C72.386.502 73.96 0 75.948 0c1.926 0 3.39.481 4.385 1.444.994.962 1.49 2.402 1.49 4.306v.47h-2.862v-.383c0-1.08-.259-1.925-.777-2.534-.517-.61-1.34-.927-2.475-.942-1.076 0-1.91.26-2.506.794-.595.532-.895 1.29-.895 2.273 0 .547.12 1.039.357 1.474.238.43.56.814.958 1.147.394.338.823.63 1.28.886.46.256.926.481 1.402.68.797.354 1.46.707 1.998 1.06.538.353.886.6 1.04.737.98.768 1.663 1.506 2.062 2.213.399.706.595 1.592.595 2.651zM99 15.588c0 2.176-.544 3.789-1.624 4.835C96.288 21.475 94.655 22 92.47 22c-1.087 0-1.995-.15-2.737-.447-.742-.295-1.358-.702-1.838-1.217-.48-.516-.841-1.109-1.082-1.779-.24-.676-.433-1.407-.573-2.201-.137-.79-.21-1.582-.21-2.372 0-.793-.01-1.603-.031-2.437v-2.97c0-1.207.083-2.335.24-3.382.162-1.051.497-1.963.998-2.731.501-.774 1.2-1.377 2.105-1.815C90.246.216 91.447 0 92.95 0c1.964 0 3.422.453 4.362 1.366.945.906 1.414 2.355 1.414 4.335v.619H95.84v-.356c0-.552-.041-1.058-.12-1.51-.078-.46-.25-.846-.51-1.16-.263-.316-.581-.557-.962-.711-.381-.161-.893-.249-1.536-.27-.982 0-1.733.197-2.256.594-.523.396-.915.902-1.175 1.515-.261.614-.392 1.304-.392 2.077 0 .774-.016 1.536-.057 2.29v4.54c0 1.15.057 2.12.177 2.908.12.794.345 1.449.664 1.96.323.514.704.881 1.143 1.103.44.216 1.013.334 1.714.355 2.365 0 3.572-1.495 3.614-4.484H99v.417zM113.267 22L113.267 11.852 105.737 11.852 105.737 22 103 22 103 0 105.737 0 105.737 9.418 113.267 9.418 113.267 0 116 0 116 22zM134.996 12.143c0 1.385-.043 2.718-.123 4.003-.08 1.284-.347 2.448-.802 3.487-.45 1.041-1.161 1.854-2.124 2.448-.969.59-2.344.897-4.132.919-1.396 0-2.535-.228-3.425-.674-.882-.451-1.567-1.083-2.06-1.896-.497-.817-.845-1.747-1.048-2.782-.21-1.04-.3-2.171-.28-3.398V9.238c0-1.226.06-2.4.183-3.52s.434-2.097.926-2.936c.492-.833 1.193-1.507 2.097-2.018.904-.508 2.158-.764 3.762-.764 1.622 0 2.905.276 3.853.828.941.547 1.643 1.28 2.092 2.199.455.917.75 1.99.895 3.212.143 1.22.208 2.479.186 3.763v2.14zm-2.9-2.48c0-.775-.006-1.588-.026-2.447-.022-.855-.156-1.64-.402-2.353-.246-.716-.647-1.295-1.204-1.741-.552-.451-1.386-.685-2.494-.707-1.418 0-2.445.42-3.082 1.253-.636.839-.969 2.225-.99 4.164v6.54c0 1.142.075 2.113.22 2.905.144.796.368 1.439.674 1.927.31.488.733.85 1.268 1.072.53.223 1.156.335 1.878.335 1.006 0 1.788-.16 2.344-.488.55-.325.963-.808 1.23-1.44.269-.632.435-1.417.493-2.351.065-.94.09-2.039.09-3.303V9.662zM152.996 12.143c0 1.385-.037 2.718-.122 4.003-.081 1.284-.348 2.448-.803 3.487-.45 1.041-1.156 1.854-2.125 2.448-.963.59-2.344.897-4.132.919-1.396 0-2.535-.228-3.419-.674-.882-.451-1.573-1.083-2.066-1.896-.492-.817-.845-1.747-1.048-2.782-.204-1.04-.3-2.171-.278-3.398V9.238c0-1.226.063-2.4.186-3.52.124-1.12.43-2.097.926-2.936.492-.833 1.188-1.507 2.092-2.018.906-.508 2.158-.764 3.764-.764 1.62 0 2.905.276 3.852.828.946.547 1.642 1.28 2.097 2.199.45.917.75 1.99.895 3.212.144 1.22.202 2.479.18 3.763v2.14zm-2.895-2.48c0-.775-.011-1.588-.032-2.447-.022-.855-.156-1.64-.401-2.353-.247-.716-.648-1.295-1.199-1.741-.557-.451-1.392-.685-2.498-.707-1.42 0-2.447.42-3.083 1.253-.637.839-.964 2.225-.985 4.164v6.54c0 1.142.07 2.113.214 2.905.144.796.37 1.439.68 1.927.305.488.727.85 1.262 1.072.536.223 1.162.335 1.879.335 1.005 0 1.787-.16 2.344-.488.556-.325.963-.808 1.23-1.44.268-.632.434-1.417.498-2.351.06-.94.09-2.039.09-3.303V9.662zM158 22L158 0 160.845 0 160.845 19.567 169 19.567 169 22zM191.996 12.143c0 1.385-.042 2.718-.123 4.003-.086 1.284-.354 2.448-.803 3.487-.45 1.041-1.161 1.854-2.124 2.448-.969.59-2.344.897-4.13.919-1.398 0-2.543-.228-3.425-.674-.884-.451-1.569-1.083-2.066-1.896-.493-.817-.84-1.747-1.044-2.782-.208-1.04-.3-2.171-.278-3.398V9.238c0-1.226.06-2.4.182-3.52.124-1.12.433-2.097.926-2.936.492-.833 1.194-1.507 2.098-2.018.904-.508 2.156-.764 3.761-.764 1.62 0 2.906.276 3.852.828.943.547 1.644 1.28 2.093 2.199.455.917.75 1.99.894 3.212.145 1.22.208 2.479.187 3.763v2.14zm-2.9-2.48c0-.775-.01-1.588-.027-2.447-.022-.855-.155-1.64-.402-2.353-.246-.716-.647-1.295-1.204-1.741-.556-.451-1.386-.685-2.493-.707-1.418 0-2.445.42-3.082 1.253-.642.839-.968 2.225-.99 4.164v6.54c0 1.142.075 2.113.219 2.905.14.796.37 1.439.675 1.927.31.488.733.85 1.262 1.072.535.223 1.161.335 1.883.335 1.007 0 1.788-.16 2.344-.488.552-.325.963-.808 1.232-1.44.267-.632.433-1.417.491-2.351.065-.94.092-2.039.092-3.303V9.662zM198.86 2.434L198.86 9.509 206.573 9.509 206.573 11.916 198.86 11.916 198.86 22 196 22 196 0 207 0 207 2.434zM226.453 22L218.759 10.514 218.759 22 216 22 216 0 218.759 0 218.759 9.662 226.421 0 229.546 0 221.643 9.931 230 22zM233 22L236 22 236 0 233 0zM252.212 22L243.515 2.926 243.515 22 241 22 241 0 244.909 0 253.518 18.832 253.518 0 256 0 256 22zM262 22L262 0 272.797 0 272.797 2.434 264.671 2.434 264.671 9.509 272.218 9.509 272.218 11.916 264.671 11.916 264.671 19.567 273 19.567 273 22zM289 16.276c0 .886-.15 1.675-.45 2.36-.295.691-.745 1.29-1.34 1.798-.596.512-1.3.896-2.117 1.152-.812.255-1.73.394-2.743.414-2.065 0-3.634-.5-4.71-1.505-1.072-1.004-1.62-2.478-1.64-4.423v-.916h2.716v.593c0 1.22.326 2.17.984 2.858.652.69 1.557 1.043 2.711 1.064 1.134 0 2.045-.307 2.744-.916.693-.61 1.04-1.434 1.04-2.479 0-.747-.228-1.392-.683-1.945-.46-.548-1.014-.993-1.671-1.326l-3.038-1.593c-1.512-.788-2.604-1.633-3.282-2.533-.673-.907-1.015-1.977-1.015-3.215 0-1.773.58-3.16 1.73-4.158C279.388.502 280.957 0 282.945 0c1.93 0 3.388.481 4.382 1.444.994.962 1.49 2.402 1.49 4.306v.47h-2.861v-.383c0-1.08-.259-1.925-.777-2.534-.511-.61-1.34-.927-2.473-.942-1.07 0-1.904.26-2.5.794-.6.532-.895 1.29-.895 2.273 0 .547.118 1.039.357 1.474.238.43.553.814.952 1.147.4.338.828.63 1.284.886.455.256.92.481 1.402.68.792.354 1.46.707 1.993 1.06.537.353.885.6 1.045.737.974.768 1.661 1.506 2.06 2.213.394.706.595 1.592.595 2.651zM293 22L296 22 296 0 293 0zM314.996 12.143c0 1.385-.043 2.718-.123 4.003-.08 1.284-.347 2.448-.802 3.487-.45 1.041-1.161 1.854-2.124 2.448-.969.59-2.344.897-4.132.919-1.396 0-2.535-.228-3.425-.674-.882-.451-1.567-1.083-2.06-1.896-.497-.817-.845-1.747-1.048-2.782-.21-1.04-.3-2.171-.28-3.398V9.238c0-1.226.06-2.4.183-3.52s.434-2.097.926-2.936c.492-.833 1.193-1.507 2.097-2.018.904-.508 2.158-.764 3.762-.764 1.622 0 2.905.276 3.853.828.941.547 1.643 1.28 2.092 2.199.455.917.75 1.99.895 3.212.143 1.22.208 2.479.186 3.763v2.14zm-2.9-2.48c0-.775-.006-1.588-.026-2.447-.022-.855-.156-1.64-.402-2.353-.246-.716-.647-1.295-1.204-1.741-.552-.451-1.386-.685-2.494-.707-1.418 0-2.445.42-3.082 1.253-.636.839-.969 2.225-.99 4.164v6.54c0 1.142.075 2.113.22 2.905.144.796.368 1.439.674 1.927.31.488.733.85 1.268 1.072.53.223 1.156.335 1.878.335 1.006 0 1.788-.16 2.344-.488.55-.325.963-.808 1.23-1.44.269-.632.435-1.417.493-2.351.065-.94.09-2.039.09-3.303V9.662zM320 22L320 0 322.843 0 322.843 19.567 331 19.567 331 22zM346.996 12.143c0 1.385-.044 2.718-.123 4.003-.086 1.284-.353 2.448-.803 3.487-.455 1.041-1.161 1.854-2.13 2.448-.963.59-2.338.897-4.126.919-1.396 0-2.541-.228-3.425-.674-.882-.451-1.567-1.083-2.064-1.896-.493-.817-.841-1.747-1.044-2.782-.208-1.04-.3-2.171-.278-3.398V9.238c0-1.226.06-2.4.182-3.52s.433-2.097.925-2.936c.493-.833 1.193-1.507 2.099-2.018.904-.508 2.156-.764 3.756-.764 1.626 0 2.91.276 3.852.828.948.547 1.648 1.28 2.098 2.199.455.917.748 1.99.894 3.212.143 1.22.208 2.479.187 3.763v2.14zm-2.901-2.48c0-.775-.01-1.588-.026-2.447-.022-.855-.155-1.64-.401-2.353-.247-.716-.648-1.295-1.205-1.741-.556-.451-1.386-.685-2.498-.707-1.418 0-2.445.42-3.082 1.253-.637.839-.963 2.225-.985 4.164v6.54c0 1.142.075 2.113.213 2.905.146.796.376 1.439.68 1.927.31.488.729.85 1.263 1.072.535.223 1.161.335 1.883.335 1.007 0 1.788-.16 2.339-.488.557-.325.968-.808 1.237-1.44.267-.632.427-1.417.491-2.351.065-.94.09-2.039.09-3.303V9.662zM362.019 6.37c0-2.695-1.207-4.041-3.63-4.041-1.139 0-2.006.186-2.604.554-.604.366-1.045.924-1.336 1.685-.291.755-.436 1.712-.436 2.875 0 1.165-.022 2.552-.06 4.164 0 1.286.011 2.482.027 3.583.022 1.106.167 2.051.437 2.85.269.797.721 1.43 1.368 1.898.642.468 1.578.706 2.824.706.597 0 1.196-.073 1.799-.218.599-.143 1.138-.388 1.611-.733v-6.555h-4.094v-2.51h6.983v10.75C362.94 22.457 360.802 23 358.485 23c-1.821 0-3.228-.309-4.225-.92-.99-.611-1.734-1.43-2.23-2.451-.502-1.021-.787-2.212-.874-3.578-.08-1.371-.134-2.77-.156-4.2V8.91c0-.957.065-1.887.189-2.786s.323-1.711.588-2.45c.269-.734.695-1.378 1.276-1.925.576-.554 1.305-.984 2.172-1.287.868-.308 1.977-.463 3.32-.463 1.179 0 2.17.112 2.979.34.808.223 1.481.602 2.02 1.133.535.532.906 1.181 1.115 1.957.206.776.319 1.76.341 2.94h-2.981zM375.866 13.165L375.866 22 373.041 22 373.041 13.101 367 0 370.19 0 374.591 10.636 379.09 0 382 0z"/>
    </g>
</svg>
